# xmcd
# Track frame offsets:
# 150
# 13520
# 26842
# 45835
# 62357
# 79287
# 93420
# 110312
# 126362
# 140942
# 157442
# 173492
# 192492
#
# Disc length: 2770 seconds
# Revision: 0
# Processed by: cddbd v1.5.1PL0 Copyright (c) Steve Scherf et al.
# Submitted via: VisiTrax 2.9.10.228 - For more info visit www.synapsa.com
#
DISCID=af0ad00d
DTITLE=Wendy Manley - Wanted
DYEAR=2001
DGENRE=
TTITLE0=Wanted
TTITLE1=Jesus is Real
TTITLE2=I Can Take My Midnight to the Lord
TTITLE3=Time and Time Again
TTITLE4=Love Lifted Me Away
TTITLE5=For Now and All Time
TTITLE6=I'll Lead the Way from Here
TTITLE7=You are My Children
TTITLE8=One Way
TTITLE9=Startin' All Over Again
TTITLE10=Until I Circle Home
TTITLE11=He's Ever Over Me
TTITLE12=Harbor of Your Arms
EXTD=Most songs by John P Nelson
EXTT0=
EXTT1=
EXTT2=
EXTT3=
EXTT4=
EXTT5=
EXTT6=
EXTT7=
EXTT8=
EXTT9=
EXTT10=
EXTT11=
EXTT12=
PLAYORDER=
